<svg width="119" height="110" viewBox="0 0 119 110" fill="none" xmlns="http://www.w3.org/2000/svg">
<g clip-path="url(#clip0_2113_103)">
<path d="M0 95.2977L12.8349 87.9165C13.4179 87.58 13.78 86.9573 13.78 86.2844V3.25233C13.78 1.80619 12.2195 0.897186 10.9651 1.62026L0.945169 7.38121C0.362167 7.71766 0 8.34039 0 9.01328V95.2977Z" fill="white"/>
<path d="M18.0113 46.3385L25.3636 50.5943C25.9437 50.9307 26.3029 51.5534 26.3029 52.2263V95.1502C26.3029 95.8172 25.9496 96.4369 25.3754 96.7734L17.9848 101.121C16.7393 101.853 16.7482 103.659 18.0025 104.379L25.9849 108.965C26.565 109.299 27.2805 109.299 27.8605 108.962L39.1437 102.419C39.7237 102.083 40.0829 101.46 40.0829 100.79V47.3478C40.0829 46.6749 39.7237 46.0522 39.1437 45.7157L27.251 38.8333C26.671 38.4968 25.9555 38.4968 25.3725 38.8333L18.0143 43.0802C16.76 43.8033 16.76 45.6184 18.0143 46.3444L18.0113 46.3385Z" fill="white"/>
<path d="M25.6843 0.295126L25.646 0.318732L25.6048 0.295126V0.342343L18.176 4.7516C16.9393 5.48647 16.9481 7.28382 18.1936 8.00394L24.9099 11.8908C25.4811 12.2214 25.8374 12.8264 25.8492 13.4875L26.2467 35.094C26.2732 36.5283 27.8249 37.4078 29.0645 36.6907L39.1434 30.8589C39.7234 30.5224 40.0827 29.8997 40.0827 29.2268V9.69799C40.0827 9.02509 39.7235 8.40236 39.1405 8.06592L25.6843 0.298076V0.295126Z" fill="white"/>
<path d="M51.0472 19.3931L61.0672 13.5377C61.6443 13.2012 62.0006 12.5814 62.0006 11.9115V3.55044C62.0006 2.1043 60.44 1.1953 59.1857 1.91837L49.1657 7.67932C48.5827 8.01577 48.2206 8.63849 48.2206 9.31139V17.7669C48.2206 19.2189 49.7929 20.125 51.0443 19.3931H51.0472Z" fill="white"/>
<path d="M51.0369 96.3366L61.0569 90.5757C61.6399 90.2392 62.002 89.6165 62.002 88.9436V20.7448C62.002 19.2986 60.4415 18.3926 59.1901 19.1098L49.1701 24.8648C48.5871 25.2013 48.225 25.824 48.225 26.4998V94.7016C48.225 96.1477 49.7855 97.0567 51.0399 96.3337L51.0369 96.3366Z" fill="white"/>
<path d="M101.457 6.73193V3.27004C101.457 1.818 99.8876 0.911948 98.6362 1.64092L86.7436 8.55288C85.4922 9.28186 83.9228 8.3758 83.9228 6.92376V3.28185C83.9228 1.8298 82.3505 0.923754 81.0961 1.65568L71.0761 7.51402C70.499 7.85047 70.1428 8.47025 70.1428 9.14019V82.4359C70.1428 83.888 71.7151 84.794 72.9694 84.0621L82.9894 78.2037C83.5665 77.8673 83.9228 77.2475 83.9228 76.5776V19.2366C83.9228 17.7875 85.4863 16.8815 86.7406 17.6045C87.3236 17.941 87.6828 18.5637 87.6828 19.2366V73.4935C87.6828 74.9366 89.2375 75.8427 90.4889 75.1314L100.509 69.4295C101.098 69.096 101.46 68.4703 101.46 67.7915V19.2366C101.46 17.7875 103.023 16.8815 104.278 17.6045C104.861 17.941 105.22 18.5637 105.22 19.2366V63.7807C105.22 65.2268 106.781 66.1359 108.035 65.4128L118.055 59.6518C118.638 59.3154 119 58.6927 119 58.0198V-5.72205e-06L104.269 8.36695C103.018 9.07821 101.463 8.17216 101.463 6.72897L101.457 6.73193Z" fill="white"/>
<path d="M69.0597 108.316C68.5356 108.617 68.2735 108.768 67.7494 109.069C68.091 104.993 68.2618 102.956 68.6033 98.8806C69.3188 98.4704 69.678 98.2638 70.3935 97.8536C70.9736 101.398 71.2651 103.172 71.8452 106.716C71.324 107.014 71.0649 107.165 70.5437 107.463C70.4407 106.752 70.3906 106.395 70.2876 105.683C69.8459 105.937 69.625 106.064 69.1834 106.318C69.1333 107.118 69.1068 107.516 69.0568 108.316H69.0597ZM69.3041 104.636C69.6133 104.459 69.7664 104.37 70.0756 104.193C69.946 103.269 69.8842 102.806 69.7546 101.882C69.7016 101.451 69.6221 100.846 69.5927 100.498C69.572 100.51 69.5632 100.516 69.5426 100.527C69.5338 100.899 69.5043 101.566 69.4719 102.047C69.4042 103.083 69.3718 103.603 69.3041 104.639V104.636Z" fill="white"/>
<path d="M79.0322 97.4699C79.7683 97.0478 80.1364 96.8383 80.8696 96.4163C80.9314 98.432 80.9638 99.4384 81.0286 101.451C80.793 101.587 80.6752 101.652 80.4426 101.788C80.3278 101.56 80.2718 101.448 80.157 101.221C80.1482 101.227 80.1452 101.227 80.1364 101.233C79.8891 101.956 79.5563 102.446 79.0205 102.756C78.5405 103.03 78.1636 103.018 77.8986 102.844C77.5011 102.584 77.2832 101.95 77.2243 100.058C77.1919 99.0665 77.1772 98.5707 77.1478 97.5791C77.0889 95.6755 77.2597 94.8137 77.6277 94.1172C77.9251 93.5535 78.3344 93.1433 78.8526 92.8452C79.4091 92.5264 79.8213 92.494 80.1217 92.6858C80.4956 92.9249 80.743 93.4827 80.7989 95.2416C80.7989 95.2682 80.7989 95.28 80.7989 95.3066C80.263 95.6135 79.9951 95.767 79.4592 96.0739C79.4592 96.0473 79.4592 96.0355 79.4592 96.009C79.4268 94.9436 79.4032 94.1969 78.9027 94.4831C78.4051 94.7694 78.4286 95.5161 78.4551 96.434C78.4963 97.7296 78.5169 98.3759 78.5552 99.6715C78.5876 100.684 78.6082 101.336 79.1264 101.041C79.7124 100.704 79.6859 99.8516 79.6535 98.8275C79.6535 98.795 79.6535 98.7803 79.6535 98.7478C79.4268 98.8776 79.312 98.9426 79.0852 99.0724C79.0646 98.432 79.0558 98.1133 79.0352 97.4728L79.0322 97.4699Z" fill="white"/>
<path d="M88.1076 93.1462C88.14 94.1969 88.1577 94.7222 88.1901 95.7699C88.8761 95.3774 89.2177 95.1797 89.9008 94.7871C89.9214 95.404 89.9302 95.7138 89.9479 96.3336C88.7348 97.0301 88.1282 97.3754 86.9151 98.0719C86.9063 97.6794 86.9034 97.4846 86.8945 97.0951C86.8003 94.0641 86.7532 92.5471 86.656 89.5131C86.6413 89.1265 86.6325 88.9317 86.6148 88.5451C87.8132 87.8575 88.4109 87.5151 89.6064 86.8304C89.627 87.4472 89.6358 87.7571 89.6535 88.3769C88.9851 88.7606 88.6494 88.9524 87.981 89.3361C88.0075 90.2274 88.0222 90.6701 88.0517 91.5614C88.5905 91.2515 88.8614 91.098 89.4002 90.7881C89.4209 91.4226 89.4297 91.7384 89.4503 92.373C88.9115 92.6828 88.6406 92.8363 88.1017 93.1462H88.1076Z" fill="white"/>
<path d="M95.6389 92.0808C95.5447 89.0498 95.4976 87.5328 95.4004 84.4989C95.3857 84.1123 95.3769 83.9175 95.3592 83.5309C95.898 83.221 96.1689 83.0675 96.7078 82.7576C97.17 84.0592 97.4027 84.7114 97.8649 86.0129C98.0063 86.4202 98.1152 86.736 98.1947 87.0311C98.2065 87.0252 98.2124 87.0223 98.2242 87.0134C98.2036 86.6711 98.1682 86.1634 98.1564 85.7916C98.1211 84.6612 98.1034 84.0975 98.0681 82.9672C98.0534 82.5805 98.0445 82.3858 98.0269 81.9991C98.5392 81.704 98.7954 81.5594 99.3077 81.2643C99.3166 81.6568 99.3195 81.8516 99.3283 82.2411C99.4226 85.2721 99.4697 86.7891 99.5668 89.8231C99.5816 90.2097 99.5904 90.4045 99.608 90.7911C99.134 91.0626 98.8984 91.1984 98.4244 91.4699C97.8885 89.9883 97.6206 89.2446 97.0847 87.763C96.9315 87.3351 96.8344 87.04 96.7549 86.7448C96.7431 86.7507 96.7372 86.7537 96.7254 86.7625C96.7372 87.1078 96.7814 87.6125 96.7932 87.9844C96.8344 89.3331 96.8579 90.006 96.8992 91.3548C96.9139 91.7414 96.9227 91.9362 96.9404 92.3228C96.428 92.6179 96.1719 92.7626 95.6595 93.0577C95.6507 92.6652 95.6478 92.4704 95.6389 92.0808Z" fill="white"/>
<path d="M106.036 86.7035C105.639 86.4438 105.421 85.8093 105.362 83.9175C105.33 82.9258 105.315 82.43 105.285 81.4384C105.227 79.5348 105.397 78.6759 105.765 77.9765C106.001 77.5308 106.375 77.0586 106.999 76.6986C107.556 76.3798 107.944 76.3592 108.248 76.551C108.663 76.8137 108.875 77.4541 108.928 79.16C108.928 79.1747 108.928 79.1836 108.928 79.2013C108.395 79.5053 108.13 79.6587 107.597 79.9627C107.597 79.948 107.597 79.9391 107.597 79.9214C107.562 78.7881 107.538 78.0562 107.04 78.3424C106.543 78.6287 106.563 79.3606 106.593 80.2933C106.634 81.5889 106.655 82.2352 106.693 83.5308C106.722 84.4635 106.746 85.1954 107.252 84.9032C107.771 84.6051 107.747 83.8614 107.706 82.5422C107.706 82.5274 107.706 82.5186 107.706 82.5008C108.233 82.1969 108.498 82.0463 109.025 81.7424C109.025 81.7571 109.025 81.766 109.025 81.7837C109.087 83.7433 108.895 84.5756 108.527 85.2692C108.248 85.7945 107.859 86.2224 107.302 86.5412C106.675 86.9012 106.287 86.8658 106.033 86.7006L106.036 86.7035Z" fill="white"/>
<path d="M116.204 75.0813C116.218 75.0724 116.227 75.0665 116.242 75.0577C116.483 73.52 116.604 72.7497 116.848 71.2121C117.37 70.914 117.629 70.7635 118.15 70.4654C117.667 73.0655 117.423 74.3641 116.94 76.9642C116.975 78.1034 116.993 78.676 117.028 79.8152C117.043 80.2018 117.052 80.3966 117.069 80.7832C116.536 81.0872 116.271 81.2407 115.738 81.5446C115.73 81.1521 115.727 80.9573 115.718 80.5678C115.682 79.4285 115.665 78.856 115.629 77.7168C115.005 75.7512 114.696 74.7714 114.072 72.8058C114.599 72.5018 114.864 72.3513 115.391 72.0473C115.715 73.2603 115.88 73.8683 116.204 75.0813Z" fill="white"/>
</g>
<defs>
<clipPath id="clip0_2113_103">
<rect width="119" height="110" fill="white"/>
</clipPath>
</defs>
</svg>
