<svg width="127" height="66" viewBox="0 0 127 66" fill="none" xmlns="http://www.w3.org/2000/svg">
<path d="M1.72575 48.7072C1.24575 48.7072 1.00575 48.5312 1.00575 48.1792C1.00575 47.8912 1.21375 47.6992 1.62975 47.6032L2.73375 47.4112C3.40575 47.2832 3.83775 47.1072 4.02975 46.8832C4.25375 46.6592 4.36575 46.2112 4.36575 45.5392V17.3152C4.36575 16.6432 4.25375 16.1952 4.02975 15.9712C3.83775 15.7472 3.40575 15.5712 2.73375 15.4432L1.62975 15.2512C1.21375 15.1552 1.00575 14.9632 1.00575 14.6752C1.00575 14.3232 1.24575 14.1472 1.72575 14.1472H10.5098C10.9898 14.1472 11.2298 14.3392 11.2298 14.7232C11.2298 15.0112 11.0538 15.1872 10.7018 15.2512L9.40575 15.4432C8.73375 15.5392 8.28575 15.7152 8.06175 15.9712C7.86975 16.2272 7.77375 16.6912 7.77375 17.3632V30.3232C7.77375 30.6432 7.86975 30.8352 8.06175 30.8992C8.25375 30.9632 8.42975 30.8512 8.58975 30.5632L16.4618 18.2272C17.5178 16.5952 17.4218 15.6672 16.1738 15.4432L15.0698 15.2512C14.6538 15.1552 14.4458 14.9472 14.4458 14.6272C14.4458 14.3072 14.6698 14.1472 15.1178 14.1472H23.2778C23.7258 14.1472 23.9498 14.3232 23.9498 14.6752C23.9498 15.0272 23.7418 15.2192 23.3258 15.2512L22.4138 15.3472C21.4218 15.4432 20.6058 15.7312 19.9658 16.2112C19.3258 16.6912 18.6058 17.5552 17.8058 18.8032L12.3818 27.2992C12.0618 27.8432 12.0458 28.3712 12.3338 28.8832L21.3578 45.8752C21.6138 46.3872 21.8698 46.7552 22.1258 46.9792C22.4138 47.2032 22.7498 47.3472 23.1338 47.4112L24.2858 47.6032C24.6698 47.6352 24.8618 47.8272 24.8618 48.1792C24.8618 48.5312 24.6378 48.7072 24.1898 48.7072H15.6458C15.1978 48.7072 14.9738 48.5312 14.9738 48.1792C14.9738 47.8592 15.1818 47.6672 15.5978 47.6032L16.4138 47.5072C17.6618 47.3472 17.9178 46.5632 17.1818 45.1552L10.2698 32.0032C10.1418 31.7472 9.99775 31.6192 9.83775 31.6192C9.67775 31.5872 9.51775 31.6992 9.35775 31.9552L8.34975 33.5392C8.12575 33.8592 7.96575 34.1632 7.86975 34.4512C7.80575 34.7392 7.77375 35.1072 7.77375 35.5552V45.4912C7.77375 46.1632 7.86975 46.6272 8.06175 46.8832C8.28575 47.1392 8.73375 47.3152 9.40575 47.4112L10.7018 47.6032C11.0538 47.6672 11.2298 47.8432 11.2298 48.1312C11.2298 48.5152 10.9898 48.7072 10.5098 48.7072H1.72575Z" fill="#1F1715"/>
<path d="M64 58.4781C78.2329 58.4781 89.771 46.9401 89.771 32.7072C89.771 18.4742 78.2329 6.93616 64 6.93616C49.7671 6.93616 38.229 18.4742 38.229 32.7072C38.229 46.9401 49.7671 58.4781 64 58.4781Z" stroke="#1F1715"/>
<path d="M64 0.707153L96 32.7072L64 64.7072L32 32.7072L64 0.707153Z" stroke="#1F1715"/>
<path d="M56.1209 48.7072C55.5449 48.7072 55.2569 48.4992 55.2569 48.0832C55.2569 47.8592 55.3689 47.5712 55.5929 47.2192L61.3529 38.4352C63.7529 34.7872 65.4809 31.6512 66.5369 29.0272C67.6249 26.3712 68.1689 23.9392 68.1689 21.7312C68.1689 19.7472 67.7529 18.2272 66.9209 17.1712C66.1209 16.1152 64.9529 15.5872 63.4169 15.5872C61.8809 15.5872 60.4889 16.1312 59.2409 17.2192C57.9929 18.2752 57.1929 19.9712 56.8409 22.3072C56.7449 22.8192 56.5049 23.0752 56.1209 23.0752C55.6409 23.0752 55.4329 22.7552 55.4969 22.1152C55.7209 20.0032 56.2649 18.3392 57.1289 17.1232C58.0249 15.8752 59.0969 14.9952 60.3449 14.4832C61.5929 13.9392 62.8569 13.6672 64.1369 13.6672C66.3449 13.6672 68.1369 14.3392 69.5129 15.6832C70.9209 16.9952 71.6249 18.8352 71.6249 21.2032C71.6249 22.8672 71.2249 24.5792 70.4249 26.3392C69.6569 28.0672 68.5849 29.9712 67.2089 32.0512C65.8649 34.0992 64.3129 36.4512 62.5529 39.1072L58.8089 44.7712C58.6169 45.0592 58.6009 45.3152 58.7609 45.5392C58.9529 45.7312 59.2089 45.8272 59.5289 45.8272H64.6649C65.8809 45.8272 66.8889 45.6992 67.6889 45.4432C68.4889 45.1552 69.1289 44.6432 69.6089 43.9072C70.0889 43.1392 70.4569 42.0512 70.7129 40.6432L71.1449 38.3872C71.2409 37.9712 71.4809 37.7632 71.8649 37.7632C72.3129 37.7632 72.5049 38.0352 72.4409 38.5792L71.8649 47.6032C71.8009 48.3392 71.4009 48.7072 70.6649 48.7072H56.1209Z" fill="#1F1715"/>
<path d="M105.671 48.7072C105.191 48.7072 104.951 48.5312 104.951 48.1792C104.951 47.8912 105.159 47.6992 105.575 47.6032L106.679 47.4112C107.351 47.2832 107.783 47.1072 107.975 46.8832C108.199 46.6592 108.311 46.2112 108.311 45.5392V17.3152C108.311 16.6432 108.199 16.1952 107.975 15.9712C107.783 15.7472 107.351 15.5712 106.679 15.4432L105.575 15.2512C105.159 15.1552 104.951 14.9632 104.951 14.6752C104.951 14.3232 105.191 14.1472 105.671 14.1472H115.415C117.015 14.1472 118.439 14.4832 119.687 15.1552C120.935 15.8272 121.911 16.7392 122.615 17.8912C123.351 19.0432 123.719 20.3552 123.719 21.8272C123.719 23.2672 123.287 24.6112 122.423 25.8592C121.591 27.0752 120.375 28.0992 118.775 28.9312C118.583 29.0272 118.487 29.1552 118.487 29.3152C118.487 29.4752 118.599 29.5872 118.823 29.6512C120.999 30.3872 122.679 31.5712 123.863 33.2032C125.047 34.8032 125.639 36.7072 125.639 38.9152C125.639 40.8032 125.207 42.4992 124.343 44.0032C123.479 45.4752 122.279 46.6272 120.743 47.4592C119.239 48.2912 117.527 48.7072 115.607 48.7072H105.671ZM114.263 28.9792C115.959 28.9792 117.367 28.3232 118.487 27.0112C119.639 25.6672 120.215 24.0032 120.215 22.0192C120.215 20.0352 119.671 18.4352 118.583 17.2192C117.495 15.9712 116.055 15.3472 114.263 15.3472C112.567 15.3472 111.719 15.9872 111.719 17.2672V26.3392C111.719 27.2672 111.911 27.9392 112.295 28.3552C112.711 28.7712 113.367 28.9792 114.263 28.9792ZM114.983 47.5072C117.063 47.5072 118.759 46.7232 120.071 45.1552C121.383 43.5552 122.039 41.4272 122.039 38.7712C122.039 36.1152 121.367 34.0192 120.023 32.4832C118.711 30.9472 116.935 30.1792 114.695 30.1792C112.711 30.1792 111.719 30.9632 111.719 32.5312V44.1952C111.719 46.4032 112.807 47.5072 114.983 47.5072Z" fill="#1F1715"/>
</svg>
