<svg width="24" height="24" viewBox="0 0 24 24" fill="none" xmlns="http://www.w3.org/2000/svg">
<path fill-rule="evenodd" clip-rule="evenodd" d="M19.0491 4.90704C17.3494 3.20724 15.0899 2.18315 12.6913 2.0255C10.2927 1.86785 7.91854 2.58738 6.01103 4.0501C4.10352 5.51281 2.79267 7.61899 2.32264 9.97636C1.85261 12.3337 2.25542 14.7816 3.45607 16.864L2.04907 22L7.30007 20.621C8.75252 21.4124 10.38 21.8277 12.0341 21.829C13.995 21.8301 15.9121 21.2495 17.543 20.1607C19.1738 19.072 20.4451 17.5239 21.1959 15.7125C21.9468 13.9011 22.1435 11.9077 21.7612 9.98444C21.3789 8.06119 20.4347 6.29456 19.0481 4.90804L19.0491 4.90704ZM12.0411 20.157C10.5649 20.1573 9.11579 19.76 7.84607 19.007L7.54607 18.827L4.42807 19.644L5.26107 16.605L5.06607 16.293C4.38665 15.2118 3.96785 13.9875 3.84272 12.7167C3.71759 11.4459 3.88955 10.1634 4.34504 8.97052C4.80052 7.77758 5.52706 6.70684 6.46729 5.84282C7.40753 4.9788 8.53573 4.34516 9.76284 3.99191C10.99 3.63866 12.2824 3.57547 13.5381 3.80733C14.7938 4.03919 15.9784 4.55976 16.9985 5.32793C18.0185 6.09611 18.846 7.09087 19.4157 8.23369C19.9854 9.3765 20.2817 10.6361 20.2811 11.913C20.2779 14.0977 19.4089 16.192 17.8643 17.7371C16.3198 19.2822 14.2258 20.153 12.0411 20.157ZM16.5571 13.985C16.3111 13.86 15.0921 13.263 14.8651 13.185C14.6381 13.107 14.4741 13.06 14.3061 13.31C14.1381 13.56 13.6661 14.11 13.5211 14.283C13.3761 14.456 13.2331 14.47 12.9861 14.345C12.256 14.0533 11.582 13.6371 10.9941 13.115C10.4535 12.6137 9.98916 12.0359 9.61607 11.4C9.47107 11.154 9.60007 11.018 9.72607 10.9C9.85207 10.782 9.97207 10.611 10.0971 10.466C10.1993 10.3409 10.2825 10.2014 10.3441 10.052C10.377 9.9837 10.3923 9.90826 10.3888 9.83251C10.3853 9.75677 10.3631 9.68307 10.3241 9.61804C10.2611 9.49304 9.76507 8.27404 9.56207 7.77804C9.35907 7.28204 9.15607 7.35204 9.00007 7.34404C8.84407 7.33604 8.69007 7.33604 8.52707 7.33604C8.40178 7.3397 8.27857 7.36901 8.16505 7.42216C8.05154 7.4753 7.95012 7.55116 7.86707 7.64504C7.587 7.91053 7.36528 8.23142 7.21601 8.58728C7.06674 8.94315 6.9932 9.32619 7.00007 9.71204C7.08064 10.6462 7.432 11.5365 8.01107 12.274C9.07338 13.8657 10.531 15.1541 12.2411 16.013C12.8311 16.267 13.2921 16.419 13.6511 16.537C14.1561 16.6901 14.6897 16.7244 15.2101 16.637C15.5549 16.567 15.8814 16.4264 16.1692 16.224C16.457 16.0216 16.6997 15.7618 16.8821 15.461C17.0445 15.0917 17.0949 14.6827 17.0271 14.285C16.9691 14.174 16.8051 14.114 16.5551 13.985H16.5571Z" fill="white"/>
</svg>
